<?xml version="1.0" encoding="utf-8"?>
<!-- Generator: Adobe Illustrator 27.4.0, SVG Export Plug-In . SVG Version: 6.00 Build 0)  -->
<svg version="1.1" id="Capa_1" xmlns="http://www.w3.org/2000/svg" xmlns:xlink="http://www.w3.org/1999/xlink" x="0px" y="0px"
	 viewBox="0 0 474.23 474.23" style="enable-background:new 0 0 474.23 474.23;" xml:space="preserve">
<style type="text/css">
	.st0{fill:#FFFFFF;}
</style>
<g>
	<g>
		<g>
			<path class="st0" d="M398.42,142.18c0,37.02,0,74.05,0,111.07c0,43.16,0,86.32,0,129.49c0,0.85,0.01,1.7,0,2.54
				c-0.01,0.91-0.09,1.84-0.09,2.76c0,4.13,0.8-2.59-0.15,1.38c-0.52,2.17-1.08,4.25-1.75,6.38c-1.2,3.81,1.46-2.21-0.56,1.21
				c-0.44,0.74-0.81,1.53-1.24,2.28c-0.66,1.12-1.37,2.19-2.11,3.25c1.79-2.6-0.58,0.62-0.9,0.97c-1.45,1.58-3.01,3.07-4.68,4.41
				c2.61-2.09-0.79,0.42-1.16,0.65c-0.92,0.58-1.88,1.06-2.81,1.61c-0.66,0.39-3.33,1.51-0.56,0.4c-1.22,0.49-2.47,0.91-3.73,1.28
				c-0.85,0.25-1.71,0.47-2.57,0.66c-0.87,0.2-1.75,0.36-2.63,0.51c1.76-0.23,1.74-0.26-0.06-0.09c-1.46,0-2.92,0.08-4.37,0.09
				c-13.69,0.03-27.37,0-41.06,0c-53.19,0-106.39,0-159.58,0c-21.86,0-43.71,0-65.57,0c-5.76,0-11.51,0-17.27,0
				c-1.08,0-2.16,0.01-3.24,0c-0.97-0.01-6.27-0.51-3.04,0c-2.19-0.34-4.35-0.87-6.46-1.56c-0.83-0.27-1.66-0.56-2.47-0.89
				c3.14,1.26-1.71-1.01-2.26-1.34c-0.74-0.44-1.45-0.94-2.19-1.37c-3.41-1.99,1.81,1.91-1.07-0.78c-1.59-1.48-3.07-2.96-4.55-4.55
				c-2.69-2.88,1.21,2.34-0.78-1.07c-0.43-0.74-0.94-1.45-1.37-2.19c-0.66-1.12-1.24-2.28-1.81-3.45c1.41,2.85-0.18-0.58-0.41-1.28
				c-0.41-1.26-0.76-2.54-1.05-3.83c0.01,0.04-0.65-4.22-0.41-1.98c0.19,1.73-0.09-2.99-0.1-3.48c0-0.25,0-0.5,0-0.75
				c-0.02-4.16,0-8.31,0-12.47c0-19.55,0-39.09,0-58.64c0-54.16,0-108.33,0-162.49c0-16.38,0-32.76,0-49.15c0-1.43-0.01-2.86,0-4.29
				c0-0.24,0-0.48,0-0.72c0.02-1.16,0.07-2.32,0.14-3.48c0.15-2.53-0.88,3.37,0.09-0.7c0.36-1.51,0.67-3.02,1.13-4.51
				c0.32-1.05,0.68-2.08,1.09-3.1c-1.27,3.15,0.48-0.73,0.7-1.13c0.54-1,3.83-5.72,1.96-3.4c1.34-1.67,2.83-3.24,4.41-4.68
				c-0.04,0.04,3.19-2.59,1.46-1.29c-1.34,1,2.36-1.48,2.76-1.72c4.56-2.67,9.05-3.72,14.19-3.79c37.49-0.48,75.01,0,112.5,0
				c46.39,0,92.78,0,139.17,0c2.79,0,5.58,0,8.36,0c7.85,0,15.36-6.9,15-15c-0.36-8.13-6.59-15-15-15c-36.57,0-73.15,0-109.72,0
				c-47.51,0-95.01,0-142.52,0c-4.02,0-8.09-0.15-12.1,0.2c-23.94,2.08-44.6,18.31-51.39,41.57c-3.66,12.54-2.24,27.19-2.24,40.12
				c0,51.77,0,103.55,0,155.32c0,36.3-0.47,72.64,0,108.95c0.27,20.43,10.85,39.63,28.6,50.03c9.78,5.73,20.72,7.89,31.92,7.89
				c15.18,0,30.36,0,45.54,0c54.8,0,109.6,0,164.39,0c20.57,0,41.14,0,61.71,0c4.42,0,8.84,0.02,13.26,0
				c15.94-0.07,31.59-6.13,42.62-17.84c10.64-11.3,15.97-25.85,16.02-41.27c0.02-5.4,0-10.79,0-16.19c0-23.16,0-46.31,0-69.47
				c0-48.99,0-97.98,0-146.97c0-3.04,0-6.08,0-9.12c0-7.85-6.9-15.36-15-15C405.29,127.55,398.42,133.77,398.42,142.18
				L398.42,142.18z"/>
		</g>
	</g>
	<g>
		<g>
			<path class="st0" d="M87.73,247.94c9.08,7.13,17.47,15.26,25.45,23.57c3.71,3.87,7.33,7.83,10.82,11.9
				c1.81,2.11,3.6,4.25,5.34,6.41c0.49,0.61,2.78,3.51,1.86,2.33c-1.17-1.51,0.44,0.58,0.71,0.94c0.5,0.67,1,1.33,1.5,2
				c7.5,10.17,14.24,20.97,19.49,32.48c0.27,0.59,0.53,1.18,0.79,1.77c0.74,1.61-0.78-2.07,0.25,0.59c0.62,1.61,1.25,3.21,1.83,4.83
				c1.14,3.23,2.15,6.5,3,9.82c0.42,1.65,0.8,3.31,1.14,4.98c0.17,0.83,0.33,1.67,0.47,2.5c0.07,0.41,0.59,3.92,0.31,1.78
				c-0.21-1.59,0.27,2.98,0.32,3.69c0.13,1.9,0.19,3.81,0.2,5.72c0.06,7.84,6.86,15.36,15,15c8.17-0.37,14.94-6.59,15-15
				c0.01-0.84,0.08-1.68,0.11-2.52c0.16-3.73-0.71,3.38-0.14,0.89c0.45-1.95,0.8-3.9,1.36-5.83c0.65-2.25,1.43-4.46,2.27-6.64
				c0.2-0.52,0.42-1.03,0.62-1.55c0.92-2.41-1.05,2.37-0.63,1.47c0.6-1.26,1.13-2.55,1.72-3.81c5.36-11.41,12.06-22.19,19.07-32.66
				c4.16-6.21,8.48-12.32,12.9-18.35c2.36-3.22,4.74-6.41,7.16-9.59c0.57-0.75,1.14-1.5,1.71-2.25c0.29-0.38,2.62-3.41,1.14-1.5
				c-1.42,1.84,0.54-0.7,0.88-1.13c0.69-0.89,1.39-1.78,2.08-2.67c10.99-14.02,22.38-27.72,33.97-41.24
				c24.07-28.06,49.05-55.34,74.46-82.18c21-22.18,42.31-44.06,63.9-65.67c10.31-10.33,21.14-20.26,31.21-30.82
				c0.14-0.15,0.3-0.29,0.44-0.43c5.83-5.63,5.66-15.56,0-21.21c-5.83-5.83-15.37-5.64-21.21,0c-8.75,8.44-17.38,17-25.99,25.58
				c-21.04,20.97-41.82,42.19-62.31,63.69c-25.62,26.88-50.81,54.18-75.15,82.21c-23.29,26.82-46.08,54.31-66.38,83.48
				c-7.65,10.98-14.98,22.27-21.13,34.17c-4.8,9.3-9.54,19.34-11.17,29.77c-0.45,2.88-0.89,5.82-0.91,8.75c10,0,20,0,30,0
				c-0.39-50.51-36.42-95.52-72.19-127.87c-3.28-2.97-6.61-5.92-10.1-8.65c-6.37-5-15-6.21-21.21,0
				C82.54,231.93,81.33,242.91,87.73,247.94L87.73,247.94z"/>
		</g>
	</g>
</g>
</svg>
